<?xml version="1.0" encoding="utf-8"?>
<!-- Generator: Adobe Illustrator 19.0.1, SVG Export Plug-In . SVG Version: 6.00 Build 0)  -->
<svg version="1.1" id="Layer_1" xmlns="http://www.w3.org/2000/svg" xmlns:xlink="http://www.w3.org/1999/xlink" x="0px" y="0px"
	 viewBox="0 0 283.596 118.542" enable-background="new 0 0 283.596 118.542" xml:space="preserve">
<g>
	
		<linearGradient id="SVGID_1_" gradientUnits="userSpaceOnUse" x1="-1740.7759" y1="31.1956" x2="-1750.2672" y2="63.1453" gradientTransform="matrix(-0.9916 -0.1294 -0.1294 0.9916 -1687.4004 -224.8121)">
		<stop  offset="0" style="stop-color:#9C0C2C"/>
		<stop  offset="0.0254" style="stop-color:#9E0C2D"/>
		<stop  offset="0.4331" style="stop-color:#BF0E36"/>
		<stop  offset="0.7725" style="stop-color:#D4103B"/>
		<stop  offset="1" style="stop-color:#DB103D"/>
	</linearGradient>
	<polygon fill="url(#SVGID_1_)" points="42.524,72.233 47.032,50.225 24.578,26.364 	"/>
	
		<linearGradient id="SVGID_2_" gradientUnits="userSpaceOnUse" x1="-1746.1301" y1="47.7328" x2="-1721.8005" y2="72.1961" gradientTransform="matrix(-0.9916 -0.1294 -0.1294 0.9916 -1687.4004 -224.8121)">
		<stop  offset="0" style="stop-color:#9C0C2C"/>
		<stop  offset="0.0254" style="stop-color:#9E0C2D"/>
		<stop  offset="0.4331" style="stop-color:#BF0E36"/>
		<stop  offset="0.7725" style="stop-color:#D4103B"/>
		<stop  offset="1" style="stop-color:#DB103D"/>
	</linearGradient>
	<polygon fill="url(#SVGID_2_)" points="22.219,63.707 44.062,76.115 24.578,26.361 	"/>
	
		<linearGradient id="SVGID_3_" gradientUnits="userSpaceOnUse" x1="-1757.7389" y1="86.4372" x2="-1772.1812" y2="108.7248" gradientTransform="matrix(-0.9916 -0.1294 -0.1294 0.9916 -1687.4004 -224.8121)">
		<stop  offset="0" style="stop-color:#9C0C2C"/>
		<stop  offset="1" style="stop-color:#DB103D"/>
	</linearGradient>
	<polygon fill="url(#SVGID_3_)" points="49.478,79.173 57.958,100.167 49.268,118.542 	"/>
	
		<linearGradient id="SVGID_4_" gradientUnits="userSpaceOnUse" x1="-1755.8025" y1="78.3247" x2="-1760.2225" y2="97.5424" gradientTransform="matrix(-0.9916 -0.1294 -0.1294 0.9916 -1687.4004 -224.8121)">
		<stop  offset="0" style="stop-color:#9C0C2C"/>
		<stop  offset="0.0254" style="stop-color:#9E0C2D"/>
		<stop  offset="0.4331" style="stop-color:#BF0E36"/>
		<stop  offset="0.7725" style="stop-color:#D4103B"/>
		<stop  offset="1" style="stop-color:#DB103D"/>
	</linearGradient>
	<polygon fill="url(#SVGID_4_)" points="37.497,80.715 49.364,103.128 49.478,79.173 	"/>
	
		<linearGradient id="SVGID_5_" gradientUnits="userSpaceOnUse" x1="-1746.1714" y1="35.4849" x2="-1773.4417" y2="1.2634" gradientTransform="matrix(-0.9916 -0.1294 -0.1294 0.9916 -1687.4004 -224.8121)">
		<stop  offset="0" style="stop-color:#9C0C2C"/>
		<stop  offset="0.0254" style="stop-color:#9E0C2D"/>
		<stop  offset="0.4331" style="stop-color:#BF0E36"/>
		<stop  offset="0.7725" style="stop-color:#D4103B"/>
		<stop  offset="1" style="stop-color:#DB103D"/>
	</linearGradient>
	<polygon fill="url(#SVGID_5_)" points="38.269,26.699 56.673,4.664 44.045,47.05 	"/>
	
		<linearGradient id="SVGID_6_" gradientUnits="userSpaceOnUse" x1="-1743.5358" y1="81.6599" x2="-1746.4822" y2="91.9054" gradientTransform="matrix(-0.9916 -0.1294 -0.1294 0.9916 -1687.4004 -224.8121)">
		<stop  offset="0" style="stop-color:#9C0C2C"/>
		<stop  offset="0.0254" style="stop-color:#9E0C2D"/>
		<stop  offset="0.4331" style="stop-color:#BF0E36"/>
		<stop  offset="0.7725" style="stop-color:#D4103B"/>
		<stop  offset="1" style="stop-color:#DB103D"/>
	</linearGradient>
	<polygon fill="url(#SVGID_6_)" points="37.271,80.259 41.893,89.018 21.167,82.837 	"/>
	
		<linearGradient id="SVGID_7_" gradientUnits="userSpaceOnUse" x1="-1743.7037" y1="62.4345" x2="-1747.2379" y2="77.8005" gradientTransform="matrix(-0.9916 -0.1294 -0.1294 0.9916 -1687.4004 -224.8121)">
		<stop  offset="0" style="stop-color:#9C0C2C"/>
		<stop  offset="0.0254" style="stop-color:#9E0C2D"/>
		<stop  offset="0.4331" style="stop-color:#BF0E36"/>
		<stop  offset="0.7725" style="stop-color:#D4103B"/>
		<stop  offset="1" style="stop-color:#DB103D"/>
	</linearGradient>
	<polygon fill="url(#SVGID_7_)" points="21.167,82.837 49.478,79.173 22.09,63.602 	"/>
	
		<linearGradient id="SVGID_8_" gradientUnits="userSpaceOnUse" x1="-1718.6675" y1="58.0902" x2="-1710.5106" y2="66.5146" gradientTransform="matrix(-0.9916 -0.1294 -0.1294 0.9916 -1687.4004 -224.8121)">
		<stop  offset="0" style="stop-color:#9C0C2C"/>
		<stop  offset="0.0254" style="stop-color:#9E0C2D"/>
		<stop  offset="0.4331" style="stop-color:#BF0E36"/>
		<stop  offset="0.7725" style="stop-color:#D4103B"/>
		<stop  offset="1" style="stop-color:#DB103D"/>
	</linearGradient>
	<polygon fill="url(#SVGID_8_)" points="8.239,51.948 0,61.284 8.178,60.201 	"/>
	
		<linearGradient id="SVGID_9_" gradientUnits="userSpaceOnUse" x1="-1724.813" y1="60.1632" x2="-1729.5596" y2="80.8008" gradientTransform="matrix(-0.9916 -0.1294 -0.1294 0.9916 -1687.4004 -224.8121)">
		<stop  offset="0" style="stop-color:#9C0C2C"/>
		<stop  offset="0.0254" style="stop-color:#9E0C2D"/>
		<stop  offset="0.4331" style="stop-color:#BF0E36"/>
		<stop  offset="0.7725" style="stop-color:#D4103B"/>
		<stop  offset="1" style="stop-color:#DB103D"/>
	</linearGradient>
	<polygon fill="url(#SVGID_9_)" points="22.644,56.98 8.14,64.729 21.167,82.837 	"/>
	
		<linearGradient id="SVGID_10_" gradientUnits="userSpaceOnUse" x1="-1723.3408" y1="53.7627" x2="-1725.6978" y2="64.0101" gradientTransform="matrix(-0.9916 -0.1294 -0.1294 0.9916 -1687.4004 -224.8121)">
		<stop  offset="0" style="stop-color:#9C0C2C"/>
		<stop  offset="0.0254" style="stop-color:#9E0C2D"/>
		<stop  offset="0.4331" style="stop-color:#BF0E36"/>
		<stop  offset="0.7725" style="stop-color:#D4103B"/>
		<stop  offset="1" style="stop-color:#DB103D"/>
	</linearGradient>
	<polygon fill="url(#SVGID_10_)" points="22.644,56.98 8.225,51.953 8.14,64.729 	"/>
	
		<linearGradient id="SVGID_11_" gradientUnits="userSpaceOnUse" x1="-1720.2562" y1="8.0853" x2="-1754.3445" y2="31.0782" gradientTransform="matrix(-0.9916 -0.1294 -0.1294 0.9916 -1687.4004 -224.8121)">
		<stop  offset="0" style="stop-color:#9C0C2C"/>
		<stop  offset="0.0254" style="stop-color:#9E0C2D"/>
		<stop  offset="0.4331" style="stop-color:#BF0E36"/>
		<stop  offset="0.7725" style="stop-color:#D4103B"/>
		<stop  offset="1" style="stop-color:#DB103D"/>
	</linearGradient>
	<polygon fill="url(#SVGID_11_)" points="30.732,0 44.045,47.05 24.578,26.364 	"/>
</g>
<g>
	<path fill="#FFFFFF" d="M118.989,82.064h-7.063V54.48c0-2.929-0.911-4.395-2.734-4.395c-1.976,0-3.901,1.263-5.774,3.789v28.189
		h-7.063V54.48c0-2.929-0.911-4.395-2.735-4.395c-1.924,0-3.825,1.263-5.697,3.789v28.189h-7.139v-37.75h7.139v4.861
		c3.089-3.494,6.202-5.241,9.343-5.241c3.291,0,5.266,1.747,5.925,5.241c3.24-3.494,6.429-5.241,9.57-5.241
		c4.151,0,6.228,2.906,6.228,8.718V82.064z"/>
	<path fill="#FFFFFF" d="M133.736,39.844h-7.14v-7.368h7.14V39.844z M133.736,82.064h-7.14v-37.75h7.14V82.064z"/>
	<path fill="#FFFFFF" d="M163.978,82.064h-7.063V54.48c0-2.929-0.912-4.395-2.736-4.395c-1.924,0-3.823,1.263-5.696,3.789v28.189
		h-7.14v-37.75h7.14v4.861c3.089-3.494,6.202-5.241,9.343-5.241c4.101,0,6.152,2.906,6.152,8.718V82.064z"/>
	<path fill="#FFFFFF" d="M194.524,82.064h-7.063v-3.721c-2.937,2.836-5.724,4.253-8.357,4.253c-3.292,0-5.495-1.793-6.608-5.382
		c-0.659-2.072-0.987-5.23-0.987-9.476v-9.02c0-4.297,0.303-7.431,0.911-9.402c1.113-3.587,3.342-5.381,6.683-5.381
		c2.633,0,5.419,1.393,8.357,4.177V32.476h7.063V82.064z M187.461,74.403V51.974c-1.875-1.259-3.521-1.889-4.938-1.889
		c-1.822,0-3.013,1.008-3.569,3.021c-0.254,0.906-0.38,2.618-0.38,5.135v10.497c0,2.266,0.152,3.876,0.456,4.833
		c0.556,1.813,1.722,2.719,3.494,2.719C183.991,76.292,185.637,75.662,187.461,74.403z"/>
	<path fill="#DE0639" d="M214.997,82.596h-4.708c-3.546,0-6.129-0.94-7.748-2.818c-1.165-1.37-1.747-4.135-1.747-8.299V32.476h7.139
		v11.838h6.456v6.304h-6.456V70.73c0,3.607,1.469,5.41,4.406,5.41h2.658V82.596z"/>
	<path fill="#DE0639" d="M256.405,44.314l-7.899,37.75h-6.761l-4.861-23.167l-4.71,23.167h-6.685l-8.127-37.75h7.215l4.558,23.546
		l4.633-23.546h6.456l4.862,23.546l4.177-23.546H256.405z"/>
	<path fill="#DE0639" d="M283.596,69.075c0,5.116-1.012,8.686-3.038,10.71c-2.024,2.026-4.886,3.038-8.581,3.038
		c-3.546,0-6.408-1.012-8.583-3.038c-1.976-1.822-2.963-5.393-2.963-10.71V57.378c0-5.114,0.999-8.697,3-10.748
		c1.999-2.05,4.848-3.076,8.546-3.076c3.595,0,6.429,1.014,8.506,3.038c2.077,2.026,3.114,5.621,3.114,10.786V69.075z
		 M276.533,69.455V56.922c0-4.607-1.518-6.912-4.556-6.912c-2.99,0-4.483,2.305-4.483,6.912v12.533c0,4.609,1.493,6.912,4.483,6.912
		C275.014,76.367,276.533,74.064,276.533,69.455z"/>
	<path fill="#DE0639" d="M280.482,46.592c-2.077-2.024-4.911-3.038-8.506-3.038c-3.698,0-6.547,1.026-8.546,3.076
		c-2.001,2.051-3,5.634-3,10.748v11.697c0,5.317,0.987,8.888,2.963,10.71c2.175,2.026,5.037,3.038,8.583,3.038
		c3.695,0,6.557-1.012,8.581-3.038c2.026-2.024,3.038-5.595,3.038-10.71V57.378C283.596,52.213,282.558,48.618,280.482,46.592z
		 M276.533,69.455c0,4.609-1.518,6.912-4.556,6.912c-2.99,0-4.483-2.303-4.483-6.912V56.922c0-4.607,1.493-6.912,4.483-6.912
		c3.038,0,4.556,2.305,4.556,6.912V69.455z"/>
</g>
</svg>
